<?xml version="1.0" encoding="utf-8"?>
<!-- Generator: Adobe Illustrator 15.0.0, SVG Export Plug-In . SVG Version: 6.00 Build 0)  -->
<!DOCTYPE svg PUBLIC "-//W3C//DTD SVG 1.1//EN" "http://www.w3.org/Graphics/SVG/1.1/DTD/svg11.dtd">
<svg version="1.1" id="Слой_1" xmlns="http://www.w3.org/2000/svg" xmlns:xlink="http://www.w3.org/1999/xlink" x="0px" y="0px"
	 width="17px" height="17px" viewBox="0 0 17 17" enable-background="new 0 0 17 17" xml:space="preserve">
<path id="Search-Icon_2_" d="M2.395,12.036c-2.897-2.564-3.131-6.954-0.522-9.802c2.609-2.849,7.073-3.079,9.971-0.514
	c2.881,2.549,3.129,6.901,0.568,9.751l4.529,4.531l-1.061,1.061l-1.408-1.41l-3.178-3.178C8.653,14.384,4.926,14.276,2.395,12.036z
	 M11.521,10.765c2.213-2.416,2.016-6.139-0.444-8.314C8.617,0.274,4.829,0.47,2.615,2.886C0.401,5.302,0.6,9.026,3.059,11.202
	C5.518,13.376,9.306,13.183,11.521,10.765z"/>
</svg>
