<?xml version="1.0" encoding="utf-8"?>
<!-- Generator: Adobe Illustrator 15.0.0, SVG Export Plug-In  -->
<!DOCTYPE svg PUBLIC "-//W3C//DTD SVG 1.1//EN" "http://www.w3.org/Graphics/SVG/1.1/DTD/svg11.dtd" [
	<!ENTITY ns_flows "http://ns.adobe.com/Flows/1.0/">
]>
<svg version="1.1"
	 xmlns="http://www.w3.org/2000/svg" xmlns:xlink="http://www.w3.org/1999/xlink" xmlns:a="http://ns.adobe.com/AdobeSVGViewerExtensions/3.0/"
	 x="0px" y="0px" width="28px" height="28px" viewBox="0 0 28 28" enable-background="new 0 0 28 28" xml:space="preserve">
<defs>
</defs>
<g>
	<defs>
		<path id="SVGID_3_" d="M0.817,11.771c0.198-0.011,1.715-0.033,2.475-0.11c3.035-0.286,9.81-1.716,14.638-5.675L12.996,0H1.276
			L0.817,11.771z"/>
	</defs>
	<clipPath id="SVGID_4_">
		<use xlink:href="#SVGID_3_"  overflow="visible"/>
	</clipPath>
	
		<circle clip-path="url(#SVGID_4_)" fill="none" stroke="#8A8A8F" stroke-width="0.75" stroke-miterlimit="10" cx="8.37" cy="7.47" r="6.069"/>
	<path clip-path="url(#SVGID_4_)" fill="#8A8A8F" d="M6.103,10.648V3.82h2.575c0.454,0,0.8,0.021,1.039,0.065
		c0.335,0.056,0.616,0.162,0.843,0.319c0.227,0.157,0.409,0.376,0.548,0.659c0.138,0.282,0.207,0.593,0.207,0.931
		c0,0.581-0.185,1.073-0.555,1.474c-0.369,0.402-1.037,0.604-2.003,0.604H7.006v2.776H6.103z M7.006,7.067h1.766
		c0.584,0,0.998-0.109,1.243-0.327c0.246-0.217,0.368-0.523,0.368-0.917c0-0.286-0.072-0.531-0.217-0.734
		c-0.145-0.203-0.335-0.337-0.57-0.403c-0.152-0.04-0.434-0.06-0.843-0.06H7.006V7.067z"/>
	
		<line clip-path="url(#SVGID_4_)" fill="none" stroke="#8A8A8F" stroke-width="0.5" stroke-miterlimit="10" x1="5.438" y1="8.996" x2="10.383" y2="8.996"/>
</g>
<g>
	<defs>
		<rect id="SVGID_2_" x="19.672" y="11.315" width="3.114" height="8.559"/>
	</defs>
	<clipPath id="SVGID_5_">
		<use xlink:href="#SVGID_2_"  overflow="visible"/>
	</clipPath>
	<path clip-path="url(#SVGID_5_)" fill="none" stroke="#8A8A8F" stroke-miterlimit="10" d="M21.206,15.655
		c0,0.867-0.323,1.656-0.86,2.252c-0.355,0.414-0.821,0.73-1.346,0.925v-6.353c0.524,0.194,0.99,0.511,1.346,0.925
		C20.883,14,21.206,14.788,21.206,15.655z"/>
</g>
<g>
	<defs>
		<path id="SVGID_1_" d="M1.807,19.008c0,0,0.209,0.011,0.385,0.022c0.264,0.01,0.639,0.043,1.101,0.088
			c0.736,0.076,1.683,0.187,2.782,0.385c3.409,0.604,8.193,1.957,11.856,4.949v1.964H1.964L1.807,19.008z"/>
	</defs>
	<clipPath id="SVGID_6_">
		<use xlink:href="#SVGID_1_"  overflow="visible"/>
	</clipPath>
	<polyline clip-path="url(#SVGID_6_)" fill="none" stroke="#8A8A8F" stroke-miterlimit="10" points="3.008,17.819 3.437,18.81 
		6.064,24.87 8.572,24.87 7.23,19.414 	"/>
</g>
<rect fill="none" width="28" height="28"/>
<line fill="none" stroke="#8A8A8F" stroke-miterlimit="10" x1="27.65" y1="15.655" x2="23.821" y2="15.655"/>
<line fill="none" stroke="#8A8A8F" stroke-miterlimit="10" x1="25.723" y1="9.406" x2="22.521" y2="12.24"/>
<line fill="none" stroke="#8A8A8F" stroke-miterlimit="10" x1="25.723" y1="21.905" x2="22.521" y2="19.071"/>
<path fill="none" stroke="#8A8A8F" stroke-miterlimit="10" d="M17.931,8.131v15.045c-3.663-2.991-8.447-4.344-11.856-4.949
	c-1.1-0.197-2.046-0.308-2.782-0.385c-0.462-0.044-0.837-0.076-1.101-0.088c-0.176-0.011-0.308-0.011-0.385-0.021
	c-0.451-0.572-0.726-1.299-0.726-2.079s0.274-1.496,0.726-2.079c0.198-0.011,0.726-0.033,1.485-0.11
	C6.327,13.18,13.103,12.091,17.931,8.131z"/>
</svg>
