<?xml version="1.0" encoding="utf-8"?>
<!-- Generator: Adobe Illustrator 15.0.0, SVG Export Plug-In  -->
<!DOCTYPE svg PUBLIC "-//W3C//DTD SVG 1.1//EN" "http://www.w3.org/Graphics/SVG/1.1/DTD/svg11.dtd" [
	<!ENTITY ns_flows "http://ns.adobe.com/Flows/1.0/">
]>
<svg version="1.1"
	 xmlns="http://www.w3.org/2000/svg" xmlns:xlink="http://www.w3.org/1999/xlink" xmlns:a="http://ns.adobe.com/AdobeSVGViewerExtensions/3.0/"
	 x="0px" y="0px" width="14px" height="14px" viewBox="-0.563 -0.564 14 14" enable-background="new -0.563 -0.564 14 14"
	 xml:space="preserve">
<defs>
</defs>
<path id="Icon_1_" fill="#8B8B8B" d="M8.004,8.999C7.167,9.627,6.127,10,5,10c-2.762,0-5-2.238-5-5c0-2.762,2.238-5,5-5s5,2.238,5,5
	c0,1.128-0.373,2.168-1.003,3.004c0.08,0.037,0.155,0.088,0.221,0.153l3.433,3.433c0.295,0.295,0.298,0.77,0.003,1.064
	c-0.293,0.293-0.772,0.288-1.063-0.004L8.157,9.219C8.092,9.153,8.04,9.079,8.004,8.999z M5,9c2.209,0,4-1.792,4-4S7.209,1,5,1
	S1,2.791,1,5S2.791,9,5,9z"/>
</svg>
