<?xml version="1.0" encoding="utf-8"?>
<!-- Generator: Adobe Illustrator 15.0.0, SVG Export Plug-In  -->
<!DOCTYPE svg PUBLIC "-//W3C//DTD SVG 1.1//EN" "http://www.w3.org/Graphics/SVG/1.1/DTD/svg11.dtd" [
	<!ENTITY ns_flows "http://ns.adobe.com/Flows/1.0/">
]>
<svg version="1.1"
	 xmlns="http://www.w3.org/2000/svg" xmlns:xlink="http://www.w3.org/1999/xlink" xmlns:a="http://ns.adobe.com/AdobeSVGViewerExtensions/3.0/"
	 x="0px" y="0px" width="28px" height="28px" viewBox="0 0 28 28" enable-background="new 0 0 28 28" xml:space="preserve">
<defs>
</defs>
<path fill="#007AFF" d="M17.93,8.133v15.045c-3.662-2.991-8.446-4.344-11.855-4.949c-1.1-0.197-2.046-0.308-2.782-0.385
	c-0.462-0.044-0.836-0.077-1.1-0.088c-0.176-0.012-0.308-0.012-0.385-0.021c-0.451-0.572-0.726-1.299-0.726-2.079
	c0-0.781,0.275-1.496,0.726-2.079c0.198-0.011,0.726-0.033,1.485-0.109C6.327,13.181,13.102,12.092,17.93,8.133z"/>
<line fill="none" stroke="#007AFF" stroke-miterlimit="10" x1="25.723" y1="21.906" x2="22.521" y2="19.072"/>
<line fill="none" stroke="#007AFF" stroke-miterlimit="10" x1="25.723" y1="9.406" x2="22.521" y2="12.24"/>
<line fill="none" stroke="#007AFF" stroke-miterlimit="10" x1="27.65" y1="15.656" x2="23.82" y2="15.656"/>
<rect fill="none" width="28" height="28"/>
<g>
	<defs>
		<path id="SVGID_3_" d="M1.807,19.008c0,0,0.209,0.012,0.385,0.022c0.264,0.011,0.638,0.044,1.1,0.089
			c0.736,0.076,1.682,0.186,2.782,0.385c3.41,0.604,8.194,1.957,11.855,4.949v1.964H1.964L1.807,19.008z"/>
	</defs>
	<clipPath id="SVGID_4_">
		<use xlink:href="#SVGID_3_"  overflow="visible"/>
	</clipPath>
	<polyline clip-path="url(#SVGID_4_)" fill="#007AFF" points="3.007,17.82 3.437,18.811 6.065,24.87 8.573,24.87 7.231,19.415 	"/>
</g>
<g>
	<defs>
		<rect id="SVGID_2_" x="19.672" y="11.316" width="3.115" height="8.559"/>
	</defs>
	<clipPath id="SVGID_5_">
		<use xlink:href="#SVGID_2_"  overflow="visible"/>
	</clipPath>
	<path clip-path="url(#SVGID_5_)" fill="#007AFF" d="M21.207,15.656c0,0.867-0.324,1.656-0.861,2.252
		c-0.355,0.414-0.822,0.73-1.346,0.925V12.48c0.523,0.193,0.99,0.511,1.346,0.924C20.883,14,21.207,14.789,21.207,15.656z"/>
</g>
<g>
	<defs>
		<path id="SVGID_1_" d="M0.818,11.771c0.198-0.01,1.714-0.032,2.474-0.109c3.035-0.285,9.811-1.715,14.638-5.675l-4.933-5.986
			H1.276L0.818,11.771z"/>
	</defs>
	<clipPath id="SVGID_6_">
		<use xlink:href="#SVGID_1_"  overflow="visible"/>
	</clipPath>
	<circle clip-path="url(#SVGID_6_)" fill="#007AFF" cx="8.37" cy="7.471" r="6.07"/>
	<g clip-path="url(#SVGID_6_)">
		<path fill="#FFFFFF" d="M6.103,10.648V3.82h2.576c0.454,0,0.799,0.021,1.039,0.065c0.335,0.056,0.616,0.163,0.843,0.319
			c0.227,0.156,0.409,0.377,0.547,0.659c0.138,0.282,0.207,0.593,0.207,0.931c0,0.581-0.185,1.072-0.554,1.475
			c-0.37,0.402-1.038,0.604-2.003,0.604H7.006v2.775H6.103z M7.006,7.067h1.765c0.584,0,0.999-0.108,1.244-0.326
			s0.368-0.523,0.368-0.917c0-0.287-0.072-0.531-0.216-0.734S9.832,4.752,9.596,4.688C9.444,4.646,9.163,4.627,8.753,4.627H7.006
			V7.067z"/>
	</g>
	
		<line clip-path="url(#SVGID_6_)" fill="none" stroke="#FFFFFF" stroke-width="0.5" stroke-miterlimit="10" x1="5.438" y1="8.996" x2="10.383" y2="8.996"/>
</g>
</svg>
