<?xml version="1.0" encoding="utf-8"?>
<!-- Generator: Adobe Illustrator 15.0.0, SVG Export Plug-In . SVG Version: 6.00 Build 0)  -->
<!DOCTYPE svg PUBLIC "-//W3C//DTD SVG 1.1//EN" "http://www.w3.org/Graphics/SVG/1.1/DTD/svg11.dtd">
<svg version="1.1" id="Слой_1" xmlns="http://www.w3.org/2000/svg" xmlns:xlink="http://www.w3.org/1999/xlink" x="0px" y="0px"
	 width="58px" height="58px" viewBox="0 0 58 58" enable-background="new 0 0 58 58" xml:space="preserve">
<g>
	<g>
		<path fill="#FFFFFF" d="M57.49,0.51C57.829,0.85,58,1.285,58,1.813v7.25c0,0.756-0.34,1.285-1.021,1.586l-6.003,2.945
			l-0.681,7.024c-0.076,0.982-0.642,1.512-1.699,1.586l-6.909,0.34v6.569c0,0.681-0.267,1.21-0.793,1.587l-5.551,3.512
			c0.603,1.888,0.906,3.776,0.906,5.663c0,4.985-1.775,9.253-5.325,12.802S23.109,58,18.125,58s-9.252-1.774-12.801-5.323
			C1.773,49.128,0,44.86,0,39.875c0-4.983,1.773-9.25,5.324-12.8c3.549-3.549,7.816-5.324,12.801-5.324
			c1.057,0,2.189,0.113,3.398,0.34L47.125,0.453C47.502,0.152,47.918,0,48.371,0h7.815C56.715,0,57.15,0.17,57.49,0.51z
			 M54.375,3.625H49.05l-25.94,21.864c-0.453,0.379-0.982,0.492-1.586,0.34c-1.209-0.301-2.342-0.453-3.398-0.453
			c-4.004,0-7.42,1.416-10.252,4.248s-4.248,6.249-4.248,10.251c0,2.646,0.717,5.138,2.152,7.478
			c1.207,2.039,2.832,3.664,4.871,4.871c2.34,1.436,4.832,2.152,7.477,2.152c4.002,0,7.42-1.416,10.252-4.248
			s4.248-6.249,4.248-10.253c0-1.962-0.379-3.851-1.133-5.663c-0.379-0.906-0.152-1.623,0.679-2.153l5.891-3.851v-7.363
			c0-0.453,0.171-0.867,0.511-1.246c0.339-0.377,0.735-0.566,1.188-0.566l7.024-0.34l0.679-6.458c0.075-0.68,0.415-1.17,1.021-1.473
			l5.891-2.832V3.625z M17.785,50.41c-1.436,1.437-3.135,2.153-5.098,2.153c-0.605,0-1.285-0.113-2.039-0.34
			c-2.039-1.207-3.664-2.832-4.871-4.871c-0.227-0.754-0.34-1.434-0.34-2.039c0-1.963,0.717-3.662,2.152-5.098
			c1.434-1.434,3.133-2.152,5.098-2.152c1.434,0,2.736,0.379,3.908,1.133c1.17,0.756,2.057,1.775,2.662,3.059
			c0.453,0.981,0.68,2.002,0.68,3.059C19.938,47.277,19.219,48.978,17.785,50.41z M10.139,42.765
			c-0.719,0.718-1.076,1.567-1.076,2.549c0,0.982,0.357,1.832,1.076,2.549c0.717,0.719,1.566,1.075,2.549,1.075
			c0.98,0,1.83-0.356,2.549-1.075c0.717-0.717,1.076-1.566,1.076-2.549c0-0.527-0.113-1.057-0.34-1.586
			c-0.68-1.359-1.775-2.039-3.285-2.039C11.705,41.688,10.855,42.048,10.139,42.765z"/>
	</g>
</g>
</svg>
