<svg xmlns="http://www.w3.org/2000/svg" xmlns:xlink="http://www.w3.org/1999/xlink" viewBox="0 0 24 24"><defs><style>.cls-1{fill:none;}</style><symbol id="New_Symbol_14" data-name="New Symbol 14" viewBox="0 0 24 24"><path class="cls-1" d="M0,0H24V24H0Z"/><path d="M18,16.08a2.91,2.91,0,0,0-2,.77L8.91,12.7A3.27,3.27,0,0,0,9,12a3.27,3.27,0,0,0-.09-.7L16,7.19A3,3,0,1,0,15,5a3.27,3.27,0,0,0,.09.7L8,9.81a3,3,0,1,0,0,4.38l7.12,4.16a2.82,2.82,0,0,0-.08.65A2.92,2.92,0,1,0,18,16.08Z"/><rect class="cls-1" width="24" height="24"/></symbol></defs><title>Ресурс 1</title><g id="Слой_2" data-name="Слой 2"><g id="Слой_1-2" data-name="Слой 1"><use id="New_Symbol_14-3" data-name="New Symbol 14" width="24" height="24" xlink:href="#New_Symbol_14"/></g></g></svg>