<?xml version="1.0" encoding="utf-8"?>
<!-- Generator: Adobe Illustrator 15.0.0, SVG Export Plug-In . SVG Version: 6.00 Build 0)  -->
<!DOCTYPE svg PUBLIC "-//W3C//DTD SVG 1.1//EN" "http://www.w3.org/Graphics/SVG/1.1/DTD/svg11.dtd">
<svg version="1.1" id="Слой_1" xmlns="http://www.w3.org/2000/svg" xmlns:xlink="http://www.w3.org/1999/xlink" x="0px" y="0px"
	 width="18px" height="18px" viewBox="0 0 18 18" enable-background="new 0 0 18 18" xml:space="preserve">
<g>
	<g>
		<path d="M12.866,11.319h-0.817l-0.283-0.281c1.004-1.17,1.613-2.688,1.613-4.349C13.379,2.995,10.384,0,6.689,0S0,2.995,0,6.689
			c0,3.694,2.995,6.689,6.689,6.689c1.661,0,3.178-0.609,4.348-1.612l0.284,0.283v0.814L16.467,18L18,16.464L12.866,11.319z
			 M6.689,11.319c-2.558,0-4.631-2.073-4.631-4.63c0-2.558,2.074-4.631,4.631-4.631s4.631,2.073,4.631,4.631
			C11.32,9.246,9.247,11.319,6.689,11.319z"/>
	</g>
</g>
</svg>
