<?xml version="1.0" encoding="utf-8"?>
<!-- Generator: Adobe Illustrator 15.0.0, SVG Export Plug-In  -->
<!DOCTYPE svg PUBLIC "-//W3C//DTD SVG 1.1//EN" "http://www.w3.org/Graphics/SVG/1.1/DTD/svg11.dtd" [
	<!ENTITY ns_flows "http://ns.adobe.com/Flows/1.0/">
]>
<svg version="1.1"
	 xmlns="http://www.w3.org/2000/svg" xmlns:xlink="http://www.w3.org/1999/xlink" xmlns:a="http://ns.adobe.com/AdobeSVGViewerExtensions/3.0/"
	 x="0px" y="0px" width="28px" height="28px" viewBox="0 0 28 28" enable-background="new 0 0 28 28" xml:space="preserve">
<defs>
	<symbol  id="New_Symbol_4" viewBox="0.001 -28 28 28">
		<path fill="none" stroke="#000000" stroke-miterlimit="10" d="M17.931-8.131v-15.046c-3.662,2.992-8.446,4.344-11.856,4.949
			c-1.1,0.198-2.045,0.309-2.782,0.385c-0.462,0.045-0.836,0.077-1.1,0.088c-0.176,0.012-0.308,0.012-0.385,0.022
			c-0.451,0.571-0.726,1.298-0.726,2.079c0,0.78,0.275,1.495,0.726,2.078c0.198,0.011,0.726,0.033,1.485,0.11
			C6.328-13.18,13.104-12.091,17.931-8.131z"/>
		<line fill="none" stroke="#000000" stroke-miterlimit="10" x1="25.724" y1="-21.906" x2="22.521" y2="-19.072"/>
		<line fill="none" stroke="#000000" stroke-miterlimit="10" x1="25.724" y1="-9.406" x2="22.521" y2="-12.24"/>
		<line fill="none" stroke="#000000" stroke-miterlimit="10" x1="27.652" y1="-15.656" x2="23.822" y2="-15.656"/>
		<polygon fill="none" points="28.001,-28 0.001,-28 0.001,0 28.001,0 		"/>
		<g>
			<defs>
				<path id="SVGID_1_" d="M1.808-19.007c0,0,0.208-0.012,0.385-0.022c0.264-0.011,0.638-0.044,1.1-0.088
					c0.737-0.077,1.682-0.187,2.782-0.385c3.41-0.604,8.194-1.958,11.856-4.949v-1.964H1.965L1.808-19.007z"/>
			</defs>
			<clipPath id="SVGID_2_">
				<use xlink:href="#SVGID_1_"  overflow="visible"/>
			</clipPath>
			<polyline clip-path="url(#SVGID_2_)" fill="none" stroke="#000000" stroke-miterlimit="10" points="3.008,-17.82 3.438,-18.809 
				6.066,-24.869 8.574,-24.869 7.232,-19.414 			"/>
		</g>
		<g>
			<defs>
				<polygon id="SVGID_3_" points="22.787,-19.875 19.673,-19.875 19.673,-11.315 22.787,-11.315 				"/>
			</defs>
			<clipPath id="SVGID_4_">
				<use xlink:href="#SVGID_3_"  overflow="visible"/>
			</clipPath>
			<path clip-path="url(#SVGID_4_)" fill="none" stroke="#000000" stroke-miterlimit="10" d="M21.208-15.656
				c0-0.867-0.323-1.656-0.86-2.251c-0.355-0.414-0.822-0.731-1.346-0.925v6.353c0.523-0.194,0.99-0.511,1.346-0.925
				C20.884-14,21.208-14.789,21.208-15.656z"/>
		</g>
		<g>
			<defs>
				<path id="SVGID_5_" d="M0.819-11.771c0.198,0.011,1.715,0.033,2.474,0.11c3.036,0.286,9.811,1.715,14.639,5.675L12.998,0H1.277
					L0.819-11.771z"/>
			</defs>
			<clipPath id="SVGID_6_">
				<use xlink:href="#SVGID_5_"  overflow="visible"/>
			</clipPath>
			<path clip-path="url(#SVGID_6_)" fill="none" stroke="#000000" stroke-width="0.75" stroke-miterlimit="10" d="M14.44-7.47
				c0-3.352-2.717-6.069-6.069-6.069s-6.07,2.717-6.07,6.069S5.019-1.4,8.371-1.4S14.44-4.118,14.44-7.47z"/>
			<g clip-path="url(#SVGID_6_)">
				<path d="M6.104-10.648v6.828h2.576c0.454,0,0.799-0.022,1.039-0.065c0.335-0.056,0.617-0.163,0.843-0.319
					c0.227-0.157,0.409-0.376,0.547-0.659c0.138-0.283,0.207-0.593,0.207-0.931c0-0.581-0.185-1.073-0.554-1.474
					c-0.37-0.402-1.037-0.604-2.003-0.604H7.007v-2.776H6.104z M7.007-7.066h1.765c0.584,0,0.999,0.108,1.244,0.326
					c0.245,0.217,0.368,0.523,0.368,0.917c0,0.286-0.072,0.531-0.216,0.734S9.833-4.751,9.597-4.686
					c-0.152,0.04-0.433,0.061-0.843,0.061H7.007V-7.066z"/>
			</g>
			
				<line clip-path="url(#SVGID_6_)" fill="none" stroke="#000000" stroke-width="0.5" stroke-miterlimit="10" x1="5.439" y1="-8.996" x2="10.384" y2="-8.996"/>
		</g>
	</symbol>
</defs>
<use xlink:href="#New_Symbol_4"  width="28" height="28" id="XMLID_1_" x="0.001" y="-28" transform="matrix(1 0 0 -1 -9.765625e-004 0)" overflow="visible"/>
</svg>
