<?xml version="1.0" encoding="utf-8"?>
<!-- Generator: Adobe Illustrator 15.0.0, SVG Export Plug-In  -->
<!DOCTYPE svg PUBLIC "-//W3C//DTD SVG 1.1//EN" "http://www.w3.org/Graphics/SVG/1.1/DTD/svg11.dtd" [
	<!ENTITY ns_flows "http://ns.adobe.com/Flows/1.0/">
]>
<svg version="1.1"
	 xmlns="http://www.w3.org/2000/svg" xmlns:xlink="http://www.w3.org/1999/xlink" xmlns:a="http://ns.adobe.com/AdobeSVGViewerExtensions/3.0/"
	 x="0px" y="0px" width="24px" height="22px" viewBox="-0.37 -0.297 24 22" enable-background="new -0.37 -0.297 24 22"
	 xml:space="preserve">
<defs>
</defs>
<g>
	<path fill="none" stroke="#007AFF" stroke-miterlimit="10" d="M22.76,19.906c0,0.55-0.45,1-1,1h-7.33c-0.55,0-1-0.45-1-1V1.5
		c0-0.55,0.45-1,1-1h7.33c0.55,0,1,0.45,1,1V19.906z"/>
</g>
<g>
	<path fill="#007AFF" d="M22.76,9.005c0,0.55-0.45,1-1,1h-7.33c-0.55,0-1-0.45-1-1V1.5c0-0.55,0.45-1,1-1h7.33c0.55,0,1,0.45,1,1
		V9.005z"/>
</g>
<line fill="none" stroke="#007AFF" stroke-miterlimit="10" x1="13.43" y1="10.005" x2="22.76" y2="10.005"/>
<line fill="none" stroke="#007AFF" stroke-miterlimit="10" x1="15.583" y1="15.533" x2="20.605" y2="15.533"/>
<line fill="none" stroke="#007AFF" stroke-miterlimit="10" x1="15.583" y1="13" x2="20.605" y2="13"/>
<line fill="none" stroke="#007AFF" stroke-miterlimit="10" x1="15.583" y1="18.064" x2="19.065" y2="18.064"/>
<g>
	<path fill="none" stroke="#007AFF" stroke-miterlimit="10" d="M9.83,19.906c0,0.55-0.45,1-1,1H1.5c-0.55,0-1-0.45-1-1V1.5
		c0-0.55,0.45-1,1-1h7.33c0.55,0,1,0.45,1,1V19.906z"/>
</g>
<g>
	<path fill="#007AFF" d="M9.83,9.005c0,0.55-0.45,1-1,1H1.5c-0.55,0-1-0.45-1-1V1.5c0-0.55,0.45-1,1-1h7.33c0.55,0,1,0.45,1,1V9.005
		z"/>
</g>
<line fill="none" stroke="#007AFF" stroke-miterlimit="10" x1="0.5" y1="10.005" x2="9.83" y2="10.005"/>
<line fill="none" stroke="#007AFF" stroke-miterlimit="10" x1="2.654" y1="15.533" x2="7.677" y2="15.533"/>
<line fill="none" stroke="#007AFF" stroke-miterlimit="10" x1="2.654" y1="13" x2="7.677" y2="13"/>
<line fill="none" stroke="#007AFF" stroke-miterlimit="10" x1="2.654" y1="18.064" x2="6.136" y2="18.064"/>
</svg>
