<?xml version="1.0" encoding="utf-8"?>
<!-- Generator: Adobe Illustrator 15.0.0, SVG Export Plug-In  -->
<!DOCTYPE svg PUBLIC "-//W3C//DTD SVG 1.1//EN" "http://www.w3.org/Graphics/SVG/1.1/DTD/svg11.dtd" [
	<!ENTITY ns_flows "http://ns.adobe.com/Flows/1.0/">
]>
<svg version="1.1"
	 xmlns="http://www.w3.org/2000/svg" xmlns:xlink="http://www.w3.org/1999/xlink" xmlns:a="http://ns.adobe.com/AdobeSVGViewerExtensions/3.0/"
	 x="0px" y="0px" width="19px" height="19px" viewBox="0 0 19 19" enable-background="new 0 0 19 19" xml:space="preserve">
<defs>
</defs>
<path fill="#EA722E" d="M17.213,19H1.787C0.8,19,0,18.199,0,17.213V1.787C0,0.8,0.8,0,1.787,0h15.426C18.2,0,19,0.8,19,1.787v15.426
	C19,18.199,18.2,19,17.213,19z"/>
<path fill="#FFFFFF" d="M10.877,12.488c0.694-0.158,1.361-0.434,1.977-0.818c0.465-0.295,0.605-0.908,0.313-1.375
	c-0.294-0.467-0.908-0.608-1.375-0.314c-1.395,0.876-3.188,0.875-4.582,0c-0.467-0.294-1.082-0.153-1.375,0.314
	c-0.293,0.465-0.153,1.08,0.313,1.375c0.614,0.385,1.282,0.66,1.976,0.818l-1.9,1.902c-0.39,0.389-0.39,1.02,0,1.408
	c0.196,0.195,0.45,0.293,0.704,0.293c0.255,0,0.51-0.098,0.705-0.293l1.87-1.869l1.869,1.869c0.39,0.391,1.021,0.391,1.409,0
	c0.391-0.389,0.391-1.021,0-1.408L10.877,12.488"/>
<path fill="#FFFFFF" d="M9.501,4.903c0.777,0,1.409,0.632,1.409,1.409c0,0.776-0.632,1.408-1.409,1.408
	c-0.776,0-1.409-0.632-1.409-1.408C8.092,5.535,8.725,4.903,9.501,4.903z M9.501,9.713c1.876,0,3.402-1.526,3.402-3.401
	c0-1.878-1.526-3.404-3.402-3.404c-1.876,0-3.402,1.526-3.402,3.402C6.099,8.187,7.625,9.713,9.501,9.713z"/>
</svg>
