<?xml version="1.0" encoding="utf-8"?>
<!-- Generator: Adobe Illustrator 15.0.0, SVG Export Plug-In . SVG Version: 6.00 Build 0)  -->
<!DOCTYPE svg PUBLIC "-//W3C//DTD SVG 1.1//EN" "http://www.w3.org/Graphics/SVG/1.1/DTD/svg11.dtd">
<svg version="1.1" id="Слой_1" xmlns="http://www.w3.org/2000/svg" xmlns:xlink="http://www.w3.org/1999/xlink" x="0px" y="0px"
	 width="200px" height="28px" viewBox="0 0 200 28" enable-background="new 0 0 200 28" xml:space="preserve">
<g>
	<path d="M96.275,13.358v-1.557c0.002-1.43-0.306-2.655-0.851-3.632c-0.404-0.731-0.935-1.306-1.48-1.726
		c-0.822-0.633-1.659-0.928-2.292-1.077c-0.635-0.147-1.082-0.154-1.189-0.154h-1.556c-0.097,0-0.459,0.005-0.984,0.11
		c-0.396,0.078-0.881,0.214-1.409,0.46c-0.397,0.184-0.817,0.434-1.224,0.769c-0.611,0.499-1.187,1.201-1.581,2.092
		c-0.399,0.891-0.614,1.949-0.613,3.157v4.668v1.557c-0.002,1.43,0.305,2.654,0.85,3.632c0.405,0.73,0.934,1.306,1.48,1.727
		c0.822,0.633,1.66,0.925,2.292,1.076c0.635,0.147,1.081,0.152,1.188,0.153h1.556c0.096,0,0.459-0.006,0.984-0.11
		c0.395-0.078,0.881-0.214,1.411-0.461c0.396-0.185,0.815-0.433,1.223-0.767c0.61-0.5,1.188-1.204,1.582-2.094
		c0.398-0.891,0.614-1.948,0.613-3.156V16.47v-0.926V13.358z M91.989,20.025c-0.142,0.252-0.298,0.417-0.469,0.551
		c-0.254,0.198-0.571,0.319-0.822,0.377c-0.125,0.029-0.231,0.044-0.291,0.049c-0.022,0.002-0.038,0.004-0.046,0.004h-1.352
		c-0.039-0.002-0.189-0.016-0.376-0.063c-0.161-0.042-0.348-0.108-0.523-0.201c-0.264-0.146-0.494-0.33-0.695-0.663
		c-0.198-0.335-0.394-0.866-0.397-1.819v-1.79v-1.07v-2.041v-1.712c0.003-0.903,0.182-1.429,0.367-1.766
		c0.142-0.252,0.296-0.416,0.468-0.55c0.254-0.199,0.571-0.32,0.824-0.378c0.123-0.029,0.229-0.043,0.289-0.049
		c0.022-0.001,0.039-0.002,0.046-0.004h1.351c0.035,0.003,0.188,0.016,0.378,0.064c0.162,0.041,0.349,0.106,0.523,0.201
		c0.264,0.145,0.494,0.329,0.696,0.663c0.198,0.335,0.394,0.866,0.397,1.819v1.712v4.901C92.352,19.163,92.174,19.688,91.989,20.025
		 M65.688,13.358v-1.557c0.002-1.43-0.306-2.655-0.85-3.632c-0.405-0.731-0.935-1.306-1.48-1.726
		c-0.823-0.633-1.659-0.928-2.292-1.077c-0.636-0.147-1.082-0.154-1.19-0.154H58.32c-0.097,0-0.459,0.005-0.985,0.11
		c-0.394,0.078-0.882,0.214-1.41,0.46c-0.396,0.184-0.816,0.434-1.224,0.769c-0.61,0.499-1.186,1.201-1.582,2.092
		c-0.397,0.891-0.613,1.949-0.611,3.157v4.668v1.557c-0.003,1.43,0.305,2.654,0.849,3.632c0.405,0.73,0.935,1.306,1.48,1.727
		c0.824,0.633,1.66,0.925,2.292,1.076c0.635,0.147,1.081,0.152,1.189,0.153h1.555c0.097,0,0.459-0.006,0.985-0.11
		c0.395-0.078,0.882-0.214,1.411-0.461c0.396-0.185,0.814-0.433,1.223-0.767c0.61-0.5,1.187-1.204,1.581-2.094
		c0.397-0.891,0.614-1.948,0.612-3.156V16.47v-0.926V13.358z M61.401,20.025c-0.142,0.252-0.297,0.417-0.469,0.551
		c-0.253,0.198-0.571,0.319-0.823,0.377c-0.125,0.029-0.23,0.044-0.291,0.049c-0.022,0.002-0.037,0.004-0.046,0.004H58.42
		c-0.039-0.002-0.189-0.016-0.377-0.063c-0.161-0.042-0.347-0.108-0.522-0.201c-0.264-0.146-0.494-0.33-0.696-0.663
		c-0.197-0.335-0.394-0.866-0.396-1.819v-1.79v-1.07v-2.041v-1.712c0.002-0.903,0.181-1.429,0.365-1.766
		c0.143-0.252,0.296-0.416,0.468-0.55c0.255-0.199,0.571-0.32,0.824-0.378c0.124-0.029,0.229-0.043,0.289-0.049
		c0.022-0.001,0.039-0.002,0.047-0.004h1.35c0.036,0.003,0.188,0.016,0.378,0.064c0.162,0.041,0.349,0.106,0.522,0.201
		c0.265,0.145,0.496,0.329,0.697,0.663c0.198,0.335,0.394,0.866,0.397,1.819v1.712v4.901C61.765,19.163,61.586,19.688,61.401,20.025
		 M37.404,5.578v3.454h2.674c-0.255,1.331-0.536,2.586-0.87,3.995c-0.419,1.781-1.079,5.837-3.623,7.188
		c-0.778,0.415-1.847,0.508-2.99,0.508h-2.953c0,0-0.451-0.008-0.825-0.073c-0.282-0.05-0.598-0.132-0.891-0.253
		c-0.22-0.091-0.426-0.2-0.604-0.329c-0.269-0.198-0.478-0.423-0.647-0.752c-0.167-0.332-0.304-0.794-0.306-1.522v-0.934v-0.142
		h9.177v-1.413h0.004v-3.502c0.002-1.43-0.305-2.655-0.85-3.632c-0.404-0.731-0.934-1.306-1.48-1.726
		c-0.823-0.633-1.659-0.928-2.292-1.077c-0.635-0.147-1.081-0.154-1.188-0.154h-1.556c-0.097,0-0.458,0.005-0.984,0.11
		c-0.394,0.078-0.882,0.214-1.411,0.46c-0.396,0.184-0.815,0.434-1.222,0.769c-0.611,0.499-1.188,1.201-1.582,2.092
		c-0.397,0.891-0.613,1.949-0.612,3.157c-0.001,4.668-0.001,3.502-0.001,5.057h0.001v0.934c-0.005,1.464,0.359,2.746,0.996,3.748
		c0.474,0.751,1.081,1.328,1.702,1.746c0.935,0.633,1.89,0.934,2.67,1.098c0.783,0.16,1.403,0.181,1.71,0.181
		c0.056,0,0.103-0.001,0.136-0.001h1.098h1.91c2.062-0.004,4.047-0.392,5.684-1.393c2.521-1.544,3.317-3.575,3.783-5.276
		c0.417-1.519,0.87-3.453,1.407-5.748c0.242-1.029,0.463-2.3,0.634-3.271h2.386v15.374h3.999V5.578H37.404z M26.37,11.646
		c0.004-0.903,0.182-1.429,0.367-1.766c0.142-0.252,0.296-0.417,0.469-0.55c0.254-0.199,0.571-0.32,0.822-0.378
		c0.126-0.029,0.23-0.043,0.291-0.049c0.022-0.001,0.039-0.003,0.047-0.004h1.192c0.035,0.003,0.188,0.015,0.38,0.064
		c0.16,0.041,0.348,0.106,0.522,0.201c0.264,0.145,0.494,0.329,0.695,0.663c0.198,0.334,0.394,0.866,0.398,1.819
		c0,0.335,0,1.061,0,1.776H26.37V11.646z M79.569,14.277c0.031-0.049,0.061-0.1,0.089-0.15c0.506-0.891,0.833-1.894,0.834-2.914
		c0.006-1.592-0.517-2.963-1.413-4.05c-0.907-1.098-2.626-1.58-4.254-1.58c-1.167,0-8.092-0.005-8.092-0.005v3.454h2.135v15.22
		h7.068c0.027,0,0.061,0.001,0.1,0.001c0.219-0.001,0.625-0.015,1.144-0.109c0.391-0.071,0.844-0.19,1.328-0.396
		c0.362-0.156,0.741-0.363,1.11-0.643c0.552-0.415,1.08-1.008,1.441-1.757c0.365-0.751,0.558-1.641,0.557-2.621
		c0.004-1.218-0.303-2.301-0.84-3.142C80.432,15.04,80.008,14.607,79.569,14.277 M72.735,9.361h2.634
		c0.447,0.002,0.825,0.166,1.122,0.47c0.291,0.308,0.528,0.848,0.534,1.616c0.001,0.565-0.195,1.23-0.469,1.542
		c-0.138,0.159-0.29,0.275-0.475,0.359c-0.186,0.084-0.406,0.142-0.711,0.143h-0.333H72.73L72.735,9.361z M77.585,19.952
		c-0.095,0.156-0.202,0.264-0.343,0.366c-0.208,0.149-0.504,0.262-0.783,0.32c-0.276,0.061-0.52,0.068-0.579,0.068h-0.008
		l-0.026-0.002h-3.128l0.006-4.368h2.257h0.009h0.814h0.022h0.004h0.016c0.069,0.002,0.274,0.016,0.515,0.069
		c0.179,0.039,0.377,0.102,0.553,0.185c0.268,0.129,0.471,0.284,0.622,0.506c0.076,0.114,0.146,0.252,0.203,0.446
		c0.057,0.195,0.098,0.763,0.099,1.104C77.834,19.27,77.708,19.744,77.585,19.952 M97.298,2.837h14.95V0.05h-14.95V2.837z
		 M18.923,0.05H7.59l0,0.003H3.116v3.943h3.863L5.292,14.302L5.29,14.318c-0.011,0.087-0.312,1.894-1.103,3.745
		c-0.252,0.591-0.555,1.021-0.869,1.361c-0.47,0.501-0.98,0.795-1.368,0.96c-0.164,0.072-0.303,0.116-0.399,0.146h-1.582v7.064h4.31
		l-0.001-3.309h12.414v3.309H21V20.53h-2.077V0.05z M7.556,20.53c0.173-0.302,0.334-0.62,0.479-0.964
		c0.993-2.346,1.322-4.408,1.363-4.658h0.001l1.775-11.094h3.596V20.53H7.556z M104.237,14.035l-1.142,2.553V5.578h-6.108v3.454
		h2.111v15.218h3.203l4.781-8.129l1.239-2.689l0.01,10.818h3.917V5.578h-3.123L104.237,14.035z"/>
	<path d="M182.269,6.334c-0.709-0.584-1.455-0.868-2.022-1.011c-0.57-0.142-0.97-0.146-1.028-0.146h-1.946
		c-0.053,0-0.373,0.003-0.843,0.104c-0.354,0.075-0.793,0.207-1.259,0.438c-0.699,0.346-1.468,0.937-2.04,1.875
		c-0.572,0.937-0.934,2.192-0.932,3.806v1.575v5.421c-0.002,1.435,0.282,2.585,0.751,3.482c0.349,0.673,0.799,1.195,1.271,1.583
		c0.712,0.585,1.457,0.868,2.024,1.012c0.57,0.143,0.971,0.146,1.027,0.146h1.946c0.052,0,0.374-0.003,0.845-0.104
		c0.352-0.075,0.792-0.205,1.259-0.438c0.698-0.345,1.466-0.936,2.038-1.874c0.573-0.937,0.935-2.192,0.933-3.807v-0.778h-1.974
		v1.012c-0.002,1.183-0.229,1.996-0.526,2.571c-0.229,0.433-0.494,0.736-0.778,0.971c-0.42,0.348-0.886,0.53-1.247,0.62
		c-0.18,0.046-0.332,0.067-0.432,0.077c-0.05,0.006-0.085,0.008-0.106,0.009c-0.011,0.001-0.017,0.001-0.018,0.001h-1.931
		c-0.012,0-0.228-0.007-0.527-0.079c-0.228-0.057-0.503-0.148-0.783-0.298c-0.421-0.229-0.845-0.569-1.187-1.15
		c-0.34-0.583-0.61-1.433-0.611-2.722v-5.655v-1.807c0.001-1.183,0.229-1.997,0.528-2.572c0.227-0.431,0.493-0.738,0.774-0.971
		c0.422-0.348,0.89-0.529,1.249-0.62c0.181-0.045,0.332-0.068,0.433-0.079c0.049-0.005,0.085-0.007,0.105-0.008
		c0.01-0.001,0.018-0.001,0.019-0.001h1.931c0.012,0,0.227,0.007,0.526,0.081c0.228,0.054,0.504,0.147,0.783,0.297
		c0.422,0.227,0.845,0.568,1.187,1.151s0.609,1.433,0.611,2.722v0.606h1.974v-0.374c0.002-1.435-0.281-2.585-0.749-3.482
		C183.194,7.245,182.742,6.722,182.269,6.334 M138.349,15.087h-0.011c-0.049-1.241-0.319-2.252-0.739-3.06
		c-0.349-0.672-0.801-1.195-1.271-1.584c-0.712-0.583-1.458-0.868-2.025-1.009c-0.568-0.143-0.969-0.146-1.027-0.146h-8.093V1.868
		h9.633v2.123h2.052V0.05h-16.915v1.896h3.18v22.303h0.076h10.067c0.051,0,0.373-0.004,0.844-0.104
		c0.353-0.074,0.792-0.205,1.259-0.438c0.698-0.347,1.467-0.938,2.038-1.876c0.574-0.936,0.936-2.19,0.934-3.805v-0.063V17.84v-2.33
		v-0.008V15.087z M136.375,17.964v0.063c-0.001,1.183-0.229,1.995-0.529,2.57c-0.225,0.433-0.492,0.738-0.775,0.971
		c-0.421,0.348-0.887,0.528-1.248,0.62c-0.181,0.044-0.332,0.067-0.431,0.078c-0.051,0.005-0.086,0.007-0.107,0.007
		c-0.008,0-0.014,0.002-0.016,0.002h-8.087V11.26h8.089c0.038,0.002,0.243,0.013,0.522,0.08c0.228,0.055,0.505,0.148,0.784,0.298
		c0.421,0.227,0.844,0.569,1.188,1.15c0.339,0.584,0.607,1.434,0.61,2.722V17.964z M193.183,14.135l6.021-8.564h-2.348l-5.35,7.777
		h-1.725v-7.77l-3.487-0.007v1.773h1.513v16.881h1.975v-9.059h1.795l6.004,9.059h2.389L193.183,14.135z M151.615,5.571
		l-7.001,12.557l-1.323,2.571V5.571h-0.184h-2.954h-0.105v1.773h1.296v16.881h1.639l7.009-12.168l1.342-2.775v14.943h1.922V5.571
		H151.615z M167.901,5.571L160.9,18.128l-1.321,2.571V5.571h-0.185h-2.953h-0.106v1.773h1.295v16.881h1.639l7.007-12.168
		l1.345-2.775v14.943h1.92V5.571H167.901z M156.587,1.671h13.054V0.05h-13.054V1.671z"/>
</g>
</svg>
