<?xml version="1.0" encoding="utf-8"?>
<!-- Generator: Adobe Illustrator 15.0.0, SVG Export Plug-In  -->
<!DOCTYPE svg PUBLIC "-//W3C//DTD SVG 1.1//EN" "http://www.w3.org/Graphics/SVG/1.1/DTD/svg11.dtd" [
	<!ENTITY ns_flows "http://ns.adobe.com/Flows/1.0/">
]>
<svg version="1.1"
	 xmlns="http://www.w3.org/2000/svg" xmlns:xlink="http://www.w3.org/1999/xlink" xmlns:a="http://ns.adobe.com/AdobeSVGViewerExtensions/3.0/"
	 x="0px" y="0px" width="19px" height="19px" viewBox="0 0 19 19" enable-background="new 0 0 19 19" xml:space="preserve">
<defs>
</defs>
<path fill="#48729D" d="M17.213,19H1.787C0.8,19,0,18.199,0,17.213V1.786C0,0.8,0.8,0,1.787,0h15.426C18.2,0,19,0.8,19,1.786v15.427
	C19,18.199,18.2,19,17.213,19z"/>
<path fill="#FFFFFF" d="M14.882,11.859c-0.015-0.031-0.026-0.056-0.039-0.076c-0.202-0.363-0.588-0.81-1.157-1.339l-0.012-0.013
	l-0.007-0.006l-0.006-0.006h-0.007c-0.258-0.246-0.422-0.412-0.49-0.497c-0.125-0.162-0.153-0.325-0.084-0.491
	c0.048-0.125,0.229-0.39,0.545-0.794c0.166-0.214,0.297-0.386,0.394-0.515c0.698-0.93,1.002-1.523,0.909-1.781l-0.037-0.061
	c-0.023-0.036-0.086-0.07-0.188-0.101c-0.101-0.03-0.23-0.035-0.388-0.015L12.57,6.179c-0.027-0.01-0.068-0.009-0.121,0.003
	C12.396,6.194,12.371,6.2,12.371,6.2L12.34,6.216l-0.023,0.018c-0.021,0.013-0.043,0.033-0.066,0.063
	c-0.024,0.03-0.045,0.066-0.061,0.106c-0.19,0.488-0.406,0.943-0.648,1.363c-0.15,0.25-0.287,0.468-0.412,0.651
	s-0.23,0.319-0.315,0.405c-0.085,0.087-0.161,0.157-0.229,0.209c-0.069,0.053-0.121,0.075-0.158,0.067
	c-0.036-0.008-0.07-0.017-0.104-0.024c-0.057-0.037-0.102-0.086-0.136-0.148s-0.058-0.142-0.069-0.236
	c-0.013-0.095-0.02-0.177-0.021-0.245c-0.002-0.069-0.001-0.166,0.003-0.291c0.005-0.125,0.006-0.21,0.006-0.255
	c0-0.153,0.003-0.319,0.009-0.5c0.007-0.18,0.012-0.322,0.016-0.427s0.006-0.216,0.006-0.333s-0.007-0.209-0.021-0.276
	C10.1,6.297,10.078,6.232,10.051,6.17c-0.029-0.063-0.07-0.111-0.125-0.146C9.872,5.99,9.804,5.963,9.723,5.942
	C9.509,5.895,9.236,5.868,8.905,5.864C8.154,5.855,7.671,5.904,7.457,6.01c-0.085,0.044-0.162,0.104-0.23,0.182
	C7.154,6.28,7.144,6.328,7.196,6.336C7.439,6.373,7.61,6.46,7.711,6.597L7.748,6.67c0.028,0.053,0.057,0.146,0.085,0.278
	c0.028,0.134,0.046,0.281,0.055,0.442c0.02,0.295,0.02,0.548,0,0.758c-0.021,0.21-0.04,0.373-0.058,0.49S7.784,8.851,7.748,8.924
	C7.711,8.996,7.687,9.041,7.675,9.057c-0.012,0.016-0.022,0.026-0.03,0.03C7.592,9.107,7.538,9.118,7.481,9.118
	c-0.056,0-0.125-0.028-0.206-0.085C7.194,8.976,7.111,8.898,7.024,8.799C6.937,8.7,6.839,8.562,6.73,8.385
	C6.621,8.207,6.508,7.996,6.391,7.754L6.293,7.578C6.233,7.465,6.15,7.301,6.045,7.085C5.94,6.868,5.847,6.659,5.767,6.457
	C5.734,6.373,5.686,6.308,5.621,6.264l-0.03-0.019c-0.02-0.016-0.053-0.033-0.097-0.051c-0.045-0.019-0.091-0.031-0.14-0.04
	l-1.66,0.013c-0.169,0-0.285,0.038-0.345,0.115L3.325,6.318C3.313,6.338,3.307,6.37,3.307,6.415s0.012,0.099,0.036,0.163
	c0.243,0.57,0.506,1.119,0.791,1.648c0.285,0.529,0.532,0.956,0.742,1.278c0.21,0.323,0.424,0.628,0.642,0.915
	s0.362,0.471,0.433,0.551c0.071,0.082,0.126,0.143,0.167,0.183l0.152,0.146c0.097,0.097,0.239,0.213,0.427,0.348
	c0.188,0.136,0.396,0.27,0.625,0.4c0.228,0.131,0.494,0.238,0.796,0.32c0.303,0.084,0.598,0.117,0.885,0.101h0.697
	c0.142-0.013,0.249-0.057,0.321-0.134l0.024-0.029c0.017-0.024,0.031-0.063,0.046-0.112c0.014-0.051,0.021-0.106,0.021-0.167
	c-0.005-0.174,0.008-0.33,0.039-0.469c0.029-0.14,0.064-0.244,0.103-0.315s0.082-0.13,0.13-0.179
	c0.049-0.049,0.084-0.078,0.104-0.088c0.021-0.01,0.036-0.018,0.049-0.021c0.097-0.032,0.211-0.001,0.342,0.094
	c0.131,0.096,0.255,0.213,0.37,0.352c0.114,0.14,0.253,0.297,0.415,0.47c0.162,0.174,0.303,0.304,0.424,0.388l0.121,0.072
	c0.081,0.049,0.186,0.094,0.315,0.134c0.129,0.04,0.241,0.051,0.339,0.03l1.551-0.023c0.154,0,0.273-0.025,0.357-0.076
	c0.086-0.051,0.136-0.106,0.152-0.167c0.016-0.061,0.017-0.129,0.003-0.206C14.91,11.943,14.896,11.89,14.882,11.859z"/>
</svg>
