<?xml version="1.0" encoding="utf-8"?>
<!-- Generator: Adobe Illustrator 15.0.0, SVG Export Plug-In  -->
<!DOCTYPE svg PUBLIC "-//W3C//DTD SVG 1.1//EN" "http://www.w3.org/Graphics/SVG/1.1/DTD/svg11.dtd" [
	<!ENTITY ns_flows "http://ns.adobe.com/Flows/1.0/">
]>
<svg version="1.1"
	 xmlns="http://www.w3.org/2000/svg" xmlns:xlink="http://www.w3.org/1999/xlink" xmlns:a="http://ns.adobe.com/AdobeSVGViewerExtensions/3.0/"
	 x="0px" y="0px" width="48px" height="48px" viewBox="-0.844 -4.89 48 48" enable-background="new -0.844 -4.89 48 48"
	 xml:space="preserve">
<defs>
</defs>
<path id="XMLID_2_" fill="none" stroke="#007AFF" stroke-miterlimit="10" d="M35.002,26.278V16.75c0-1.203-0.92-2.178-2.055-2.178
	h-4.91c-0.762-0.071-1.471-0.226-1.963-0.531c-1.57-0.978-1.68-3.821-4.171-3.821h-4.131h-4.132c-2.491,0-2.6,2.846-4.171,3.821
	c-0.49,0.307-1.2,0.46-1.963,0.531H2.556c-1.133,0-2.056,0.975-2.056,2.178v8.376v11.033c0,1.138,0.92,2.062,2.056,2.062h30.392
	c1.131,0,2.055-0.924,2.055-2.062V26.278L35.002,26.278z"/>
<ellipse id="XMLID_1_" fill="none" stroke="#007AFF" stroke-miterlimit="10" cx="17.751" cy="25.219" rx="7.882" ry="7.899"/>
<line fill="none" stroke="#007AFF" stroke-miterlimit="10" x1="40.104" y1="11.417" x2="40.104" y2="0"/>
<line fill="none" stroke="#007AFF" stroke-miterlimit="10" x1="34.395" y1="5.709" x2="45.813" y2="5.709"/>
</svg>
