<?xml version="1.0" encoding="utf-8"?>
<!-- Generator: Adobe Illustrator 15.0.0, SVG Export Plug-In  -->
<!DOCTYPE svg PUBLIC "-//W3C//DTD SVG 1.1//EN" "http://www.w3.org/Graphics/SVG/1.1/DTD/svg11.dtd" [
	<!ENTITY ns_flows "http://ns.adobe.com/Flows/1.0/">
]>
<svg version="1.1"
	 xmlns="http://www.w3.org/2000/svg" xmlns:xlink="http://www.w3.org/1999/xlink" xmlns:a="http://ns.adobe.com/AdobeSVGViewerExtensions/3.0/"
	 x="0px" y="0px" width="28px" height="28px" viewBox="0 0 28 28" enable-background="new 0 0 28 28" xml:space="preserve">
<defs>
	<symbol  id="Edit" viewBox="-14 -14 28 28">
		<g>
			<polygon id="XMLID_296_" fill="#B8B9BD" points="-4.078,-6.634 -4.077,-6.635 -4.076,-6.633 -4.074,-6.633 -4.074,-6.632 
				5.563,2.998 4.674,3.886 -4.963,-5.743 -5.82,-4.887 3.817,4.743 2.928,5.631 -6.711,-4.001 -6.71,-4.002 -7.439,-7.613 			"/>
			<path id="XMLID_275_" fill="#B8B9BD" d="M7.068,6.35L6.177,7.241c-0.495,0.495-1.283,0.494-1.77,0.007l-0.881-0.88l2.667-2.667
				l0.882,0.88C7.565,5.072,7.558,5.86,7.068,6.35z"/>
		</g>
		<polygon fill="none" points="14,-14 -14,-14 -14,14 14,14 		"/>
	</symbol>
</defs>
<use xlink:href="#Edit"  width="28" height="28" id="XMLID_1_" x="-14" y="-14" transform="matrix(1 0 0 -1 14 14)" overflow="visible"/>
</svg>
