<?xml version="1.0" encoding="utf-8"?>
<!-- Generator: Adobe Illustrator 15.0.0, SVG Export Plug-In . SVG Version: 6.00 Build 0)  -->
<!DOCTYPE svg PUBLIC "-//W3C//DTD SVG 1.1//EN" "http://www.w3.org/Graphics/SVG/1.1/DTD/svg11.dtd">
<svg version="1.1" id="Слой_1" xmlns="http://www.w3.org/2000/svg" xmlns:xlink="http://www.w3.org/1999/xlink" x="0px" y="0px"
	 width="60px" height="48px" viewBox="0 0 60 48" enable-background="new 0 0 60 48" xml:space="preserve">
<g>
	<g>
		<path fill="#FFFFFF" d="M58.441,8.48c0.731,0.732,1.098,1.598,1.098,2.597v7.385v3.692v22.153c0,0.999-0.366,1.864-1.098,2.597
			C57.711,47.634,56.846,48,55.846,48H4.154c-1,0-1.866-0.366-2.596-1.096c-0.732-0.732-1.096-1.598-1.096-2.597V22.154v-3.692
			v-7.385c0-0.999,0.364-1.864,1.096-2.597c0.73-0.729,1.596-1.096,2.596-1.096h14.769c0,1,0.365,1.866,1.096,2.596
			c0.73,0.732,1.596,1.097,2.596,1.097H4.154v7.385h18.461c-1,0-1.866,0.366-2.596,1.096c-0.731,0.732-1.096,1.598-1.096,2.597
			H4.154v22.153h51.692V22.154H41.077c0-0.999-0.366-1.864-1.098-2.597c-0.729-0.729-1.595-1.096-2.595-1.096h18.461v-7.385H37.385
			c1,0,1.865-0.364,2.595-1.097c0.731-0.729,1.098-1.596,1.098-2.596h14.769C56.846,7.385,57.711,7.751,58.441,8.48z M20.019,9.98
			c-0.731-0.729-1.096-1.596-1.096-2.596V3.692c0-0.999,0.365-1.864,1.096-2.597C20.75,0.366,21.615,0,22.615,0h14.77
			c1,0,1.865,0.366,2.595,1.096c0.731,0.732,1.098,1.598,1.098,2.597v3.692c0,1-0.366,1.866-1.098,2.596
			c-0.729,0.732-1.595,1.097-2.595,1.097h-14.77C21.615,11.077,20.75,10.713,20.019,9.98z M20.019,19.558
			c0.73-0.729,1.596-1.096,2.596-1.096h14.77c1,0,1.865,0.366,2.595,1.096c0.731,0.732,1.098,1.598,1.098,2.597v3.691
			c0,1.001-0.366,1.867-1.098,2.597c-0.729,0.731-1.595,1.096-2.595,1.096h-14.77c-1,0-1.866-0.364-2.596-1.096
			c-0.731-0.729-1.096-1.596-1.096-2.597v-3.691C18.923,21.155,19.288,20.29,20.019,19.558z M22.615,7.385h14.77V3.692h-14.77V7.385
			z M37.385,22.154h-14.77v3.691h14.77V22.154z"/>
	</g>
</g>
</svg>
